<svg xmlns="http://www.w3.org/2000/svg" viewBox="0 0 841.9 595.3">

    <symbol id='icon-telegram' viewBox="0 0 20 20">
        <path d="M1.2249 8.96853C1.2249 8.96853 10.0712 5.45587 13.1399 4.2177C14.3149 3.72415 18.3024 2.14136 18.3024 2.14136C18.3024 2.14136 20.1437 1.44843 19.9899 3.13091C19.9399 3.82261 19.5312 6.24726 19.1212 8.86884C18.5087 12.5797 17.8437 16.6351 17.8437 16.6351C17.8437 16.6351 17.7412 17.7736 16.8724 17.9717C16.0024 18.1687 14.5712 17.2788 14.3149 17.0807C14.1112 16.933 10.4812 14.7065 9.1524 13.6184C8.79365 13.3218 8.38365 12.7274 9.2024 12.0357C11.0437 10.4024 13.2412 8.37406 14.5712 7.08789C15.1837 6.49465 15.7987 5.10879 13.2412 6.79127C9.61115 9.21592 6.0324 11.4904 6.0324 11.4904C6.0324 11.4904 5.21365 11.9852 3.6799 11.5396C2.14615 11.0953 0.357404 10.5033 0.357404 10.5033C0.357404 10.5033 -0.870096 9.76116 1.22615 8.96977L1.2249 8.96853Z"/>
    </symbol>

    <symbol id='icon-linkedin' viewBox="0 0 20 20">
        <path d="m 7.22171,18 h 3.85859 v -6.7824 c 0,-0.363 0.025,-0.7256 0.1269,-0.9851 0.279,-0.72522 0.9139,-1.47635 1.9798,-1.47635 1.3962,0 1.9548,1.11375 1.9548,2.74645 V 18 H 19 v -6.9639 c 0,-3.73044 -1.9036,-5.46629 -4.4423,-5.46629 -2.0816,0 -2.9954,1.21725 -3.5031,2.04636 h 0.0258 V 5.85481 H 7.22181 C 7.27245,6.99443 7.22171,18 7.22171,18 Z M 5.08668,18 V 5.85481 H 1.2281 V 18 Z M 3.15737,4.19659 c 1.34557,0 2.18307,-0.93262 2.18307,-2.09812 C 5.31536,0.906738 4.50294,0 3.1829,0 1.86299,0 1,0.906738 1,2.09847 1,3.26397 1.83732,4.19659 3.13222,4.19659 Z"/>
    </symbol>

    <symbol id='icon-vkontakte' viewBox="0 0 20 20">
        <path d="M11.0164 16.5C4.25986 16.5 0.159415 11.8038 0 4H3.42203C3.52871 9.73247 6.13209 12.1652 8.12777 12.6611V4H11.4084V8.94597C13.3333 8.73223 15.347 6.48199 16.0254 4H19.2509C18.7343 7.05355 16.542 9.3038 14.991 10.232C16.542 10.9825 19.0375 12.9469 20 16.5H16.4533C15.7042 14.1249 13.8679 12.2853 11.4084 12.0355V16.5H11.0164Z"/>
    </symbol>

    <symbol id='icon-mailto' viewBox="0 0 24 24">
        <polyline fill="none" points="4 8.2 12 14.1 20 8.2" strokeLinecap="round" strokeLinejoin="round"/>
        <rect fill="none" height="14" rx="2" ry="2" strokeLinecap="round" strokeLinejoin="round" width="18" x="3"
              y="6.5"/>
    </symbol>

    <symbol id='icon-tel' viewBox="0 0 24 24" fill="none">
        <path d="M18.4 20.75H18.17C15.5788 20.4681 13.0893 19.5846 10.9 18.17C8.86618 16.8747 7.13938 15.1513 5.84 13.12C4.42216 10.925 3.53852 8.42823 3.26 5.83001C3.22816 5.52011 3.2596 5.20696 3.35243 4.90958C3.44525 4.6122 3.59752 4.33677 3.8 4.10001C3.99694 3.86008 4.24002 3.66211 4.51486 3.51782C4.78969 3.37354 5.09068 3.28587 5.4 3.26001H8C8.56312 3.26058 9.10747 3.46248 9.53476 3.82925C9.96205 4.19602 10.2441 4.70349 10.33 5.26001C10.425 5.97489 10.6028 6.67628 10.86 7.35001C11.0164 7.77339 11.0487 8.23264 10.9531 8.67375C10.8574 9.11485 10.6378 9.51947 10.32 9.84001L9.71 10.45C10.6704 11.9662 11.9587 13.2477 13.48 14.2L14.09 13.6C14.4105 13.2822 14.8152 13.0626 15.2563 12.9669C15.6974 12.8713 16.1566 12.9036 16.58 13.06C17.2545 13.3148 17.9556 13.4926 18.67 13.59C19.236 13.6751 19.7515 13.9638 20.1198 14.402C20.488 14.8403 20.6837 15.3978 20.67 15.97V18.37C20.67 18.9942 20.4227 19.593 19.9823 20.0353C19.5419 20.4776 18.9442 20.7274 18.32 20.73L18.4 20.75ZM8 4.75001H5.61C5.49265 4.75777 5.37809 4.78924 5.27325 4.84252C5.1684 4.8958 5.07545 4.96979 5 5.06001C4.92658 5.14452 4.871 5.24302 4.83663 5.34957C4.80226 5.45612 4.7898 5.56852 4.8 5.68001C5.04249 8.03679 5.83362 10.304 7.11 12.3C8.28664 14.1467 9.85332 15.7134 11.7 16.89C13.6973 18.1798 15.967 18.9878 18.33 19.25C18.4529 19.2569 18.5759 19.2383 18.6912 19.1953C18.8065 19.1522 18.9117 19.0857 19 19C19.1592 18.8368 19.2489 18.6181 19.25 18.39V16C19.2545 15.7896 19.1817 15.5848 19.0453 15.4244C18.9089 15.2641 18.7184 15.1593 18.51 15.13C17.6839 15.0189 16.8724 14.8177 16.09 14.53C15.9359 14.4724 15.7686 14.4596 15.6075 14.4933C15.4464 14.5269 15.2982 14.6055 15.18 14.72L14.18 15.72C14.0629 15.8342 13.912 15.9076 13.7499 15.9292C13.5877 15.9508 13.423 15.9195 13.28 15.84C11.1462 14.6342 9.37997 12.8715 8.17 10.74C8.08718 10.598 8.05402 10.4324 8.07575 10.2694C8.09748 10.1065 8.17286 9.95538 8.29 9.84001L9.29 8.84001C9.40468 8.72403 9.48357 8.57751 9.51726 8.41793C9.55095 8.25835 9.53802 8.09244 9.48 7.94001C9.19119 7.15799 8.98997 6.34637 8.88 5.52001C8.85519 5.30528 8.75133 5.10747 8.58865 4.96513C8.42597 4.82278 8.21613 4.7461 8 4.75001Z"
              fill="#ffffff"/>
    </symbol>

    <symbol id='icon-search' viewBox="0 0 24 24" fill="none">
        <path d="M20 20L15.8033 15.8033M18 10.5C18 6.35786 14.6421 3 10.5 3C6.35786 3 3 6.35786 3 10.5C3 14.6421 6.35786 18 10.5 18C14.6421 18 18 14.6421 18 10.5Z"></path>
    </symbol>

    <symbol id='icon-circle' viewBox="0 0 32 32">
        <circle cx="16" cy="16" r="16"></circle>
    </symbol>

    <symbol id='icon-slider' viewBox="0 0 24 24">
        <path d="M3 8L15 8M15 8C15 9.65686 16.3431 11 18 11C19.6569 11 21 9.65685 21 8C21 6.34315 19.6569 5 18 5C16.3431 5 15 6.34315 15 8ZM9 16L21 16M9 16C9 17.6569 7.65685 19 6 19C4.34315 19 3 17.6569 3 16C3 14.3431 4.34315 13 6 13C7.65685 13 9 14.3431 9 16Z" stroke="#ffffff" strokeWidth="2" strokeLinecap="round" strokeLinejoin="round"></path>
    </symbol>

    <symbol id='icon-any' viewBox="0 0 1024 1024" >
        <path d="M364.8 106.666667L298.666667 172.8 637.866667 512 298.666667 851.2l66.133333 66.133333L768 512z"></path>
    </symbol>

    <symbol id='icon-open' viewBox="0 0 385.201 385.201">
        <path id="Border_Arrow_Right" d="M381.658,183.472L201.878,3.691c-2.43-2.43-5.618-3.621-8.794-3.597 c-0.096,0-0.168-0.048-0.265-0.048H12.364c-6.641,0-12.03,5.39-12.03,12.03c0,0.096,0.048,0.168,0.048,0.265 c-0.012,3.176,1.179,6.364,3.597,8.794l171.384,171.384L3.618,364.263c-4.824,4.824-4.824,12.644,0,17.468 c2.863,2.863,6.749,3.814,10.466,3.284h176.978c3.717,0.529,7.603-0.421,10.466-3.284l180.118-180.118 c2.502-2.502,3.645-5.799,3.549-9.083C385.292,189.27,384.149,185.974,381.658,183.472z M187.381,360.955H41.862l159.329-159.329 c2.502-2.502,3.645-5.799,3.549-9.083c0.096-3.272-1.047-6.569-3.549-9.071L41.838,24.106h145.579l168.412,168.412L187.381,360.955 z"></path> 
    </symbol>

    <symbol id='icon-gitHub' viewBox="0 0 24 24">
        <path fill-rule="evenodd" clip-rule="evenodd" d="M12 0c-6.626 0-12 5.373-12 12 0 5.302 3.438 9.8 8.207 11.387.599.111.793-.261.793-.577v-2.234c-3.338.726-4.033-1.416-4.033-1.416-.546-1.387-1.333-1.756-1.333-1.756-1.089-.745.083-.729.083-.729 1.205.084 1.839 1.237 1.839 1.237 1.07 1.834 2.807 1.304 3.492.997.107-.775.418-1.305.762-1.604-2.665-.305-5.467-1.334-5.467-5.931 0-1.311.469-2.381 1.236-3.221-.124-.303-.535-1.524.117-3.176 0 0 1.008-.322 3.301 1.23.957-.266 1.983-.399 3.003-.404 1.02.005 2.047.138 3.006.404 2.291-1.552 3.297-1.23 3.297-1.23.653 1.653.242 2.874.118 3.176.77.84 1.235 1.911 1.235 3.221 0 4.609-2.807 5.624-5.479 5.921.43.372.823 1.102.823 2.222v3.293c0 .319.192.694.801.576 4.765-1.589 8.199-6.086 8.199-11.386 0-6.627-5.373-12-12-12z"/>
    </symbol>
</svg>

