<svg xmlns="http://www.w3.org/2000/svg" viewBox="0 0 841.9 595.3">

    <symbol id='icon-telegram' viewBox="0 -2 20 22">
        <path d="M1.2249 8.96853C1.2249 8.96853 10.0712 5.45587 13.1399 4.2177C14.3149 3.72415 18.3024 2.14136 18.3024 2.14136C18.3024 2.14136 20.1437 1.44843 19.9899 3.13091C19.9399 3.82261 19.5312 6.24726 19.1212 8.86884C18.5087 12.5797 17.8437 16.6351 17.8437 16.6351C17.8437 16.6351 17.7412 17.7736 16.8724 17.9717C16.0024 18.1687 14.5712 17.2788 14.3149 17.0807C14.1112 16.933 10.4812 14.7065 9.1524 13.6184C8.79365 13.3218 8.38365 12.7274 9.2024 12.0357C11.0437 10.4024 13.2412 8.37406 14.5712 7.08789C15.1837 6.49465 15.7987 5.10879 13.2412 6.79127C9.61115 9.21592 6.0324 11.4904 6.0324 11.4904C6.0324 11.4904 5.21365 11.9852 3.6799 11.5396C2.14615 11.0953 0.357404 10.5033 0.357404 10.5033C0.357404 10.5033 -0.870096 9.76116 1.22615 8.96977L1.2249 8.96853Z"/>
    </symbol>

    <symbol id='icon-linkedin' viewBox="0 0 20 20">
        <path d="m 7.22171,18 h 3.85859 v -6.7824 c 0,-0.363 0.025,-0.7256 0.1269,-0.9851 0.279,-0.72522 0.9139,-1.47635 1.9798,-1.47635 1.3962,0 1.9548,1.11375 1.9548,2.74645 V 18 H 19 v -6.9639 c 0,-3.73044 -1.9036,-5.46629 -4.4423,-5.46629 -2.0816,0 -2.9954,1.21725 -3.5031,2.04636 h 0.0258 V 5.85481 H 7.22181 C 7.27245,6.99443 7.22171,18 7.22171,18 Z M 5.08668,18 V 5.85481 H 1.2281 V 18 Z M 3.15737,4.19659 c 1.34557,0 2.18307,-0.93262 2.18307,-2.09812 C 5.31536,0.906738 4.50294,0 3.1829,0 1.86299,0 1,0.906738 1,2.09847 1,3.26397 1.83732,4.19659 3.13222,4.19659 Z"/>
    </symbol>

    <symbol id='icon-vkontakte' viewBox="0 0 20 20">
        <path d="M11.0164 16.5C4.25986 16.5 0.159415 11.8038 0 4H3.42203C3.52871 9.73247 6.13209 12.1652 8.12777 12.6611V4H11.4084V8.94597C13.3333 8.73223 15.347 6.48199 16.0254 4H19.2509C18.7343 7.05355 16.542 9.3038 14.991 10.232C16.542 10.9825 19.0375 12.9469 20 16.5H16.4533C15.7042 14.1249 13.8679 12.2853 11.4084 12.0355V16.5H11.0164Z"/>
    </symbol>

    <symbol id='icon-mailto' viewBox="0 0 24 24">
        <polyline fill="none" points="4 8.2 12 14.1 20 8.2" strokeLinecap="round" strokeLinejoin="round"/>
        <rect fill="none" height="14" rx="2" ry="2" strokeLinecap="round" strokeLinejoin="round" width="18" x="3" y="6.5"/>
    </symbol>

    <symbol id='icon-tel' viewBox="0 0 24 24" fill="none">
        <path d="M18.4 20.75H18.17C15.5788 20.4681 13.0893 19.5846 10.9 18.17C8.86618 16.8747 7.13938 15.1513 5.84 13.12C4.42216 10.925 3.53852 8.42823 3.26 5.83001C3.22816 5.52011 3.2596 5.20696 3.35243 4.90958C3.44525 4.6122 3.59752 4.33677 3.8 4.10001C3.99694 3.86008 4.24002 3.66211 4.51486 3.51782C4.78969 3.37354 5.09068 3.28587 5.4 3.26001H8C8.56312 3.26058 9.10747 3.46248 9.53476 3.82925C9.96205 4.19602 10.2441 4.70349 10.33 5.26001C10.425 5.97489 10.6028 6.67628 10.86 7.35001C11.0164 7.77339 11.0487 8.23264 10.9531 8.67375C10.8574 9.11485 10.6378 9.51947 10.32 9.84001L9.71 10.45C10.6704 11.9662 11.9587 13.2477 13.48 14.2L14.09 13.6C14.4105 13.2822 14.8152 13.0626 15.2563 12.9669C15.6974 12.8713 16.1566 12.9036 16.58 13.06C17.2545 13.3148 17.9556 13.4926 18.67 13.59C19.236 13.6751 19.7515 13.9638 20.1198 14.402C20.488 14.8403 20.6837 15.3978 20.67 15.97V18.37C20.67 18.9942 20.4227 19.593 19.9823 20.0353C19.5419 20.4776 18.9442 20.7274 18.32 20.73L18.4 20.75ZM8 4.75001H5.61C5.49265 4.75777 5.37809 4.78924 5.27325 4.84252C5.1684 4.8958 5.07545 4.96979 5 5.06001C4.92658 5.14452 4.871 5.24302 4.83663 5.34957C4.80226 5.45612 4.7898 5.56852 4.8 5.68001C5.04249 8.03679 5.83362 10.304 7.11 12.3C8.28664 14.1467 9.85332 15.7134 11.7 16.89C13.6973 18.1798 15.967 18.9878 18.33 19.25C18.4529 19.2569 18.5759 19.2383 18.6912 19.1953C18.8065 19.1522 18.9117 19.0857 19 19C19.1592 18.8368 19.2489 18.6181 19.25 18.39V16C19.2545 15.7896 19.1817 15.5848 19.0453 15.4244C18.9089 15.2641 18.7184 15.1593 18.51 15.13C17.6839 15.0189 16.8724 14.8177 16.09 14.53C15.9359 14.4724 15.7686 14.4596 15.6075 14.4933C15.4464 14.5269 15.2982 14.6055 15.18 14.72L14.18 15.72C14.0629 15.8342 13.912 15.9076 13.7499 15.9292C13.5877 15.9508 13.423 15.9195 13.28 15.84C11.1462 14.6342 9.37997 12.8715 8.17 10.74C8.08718 10.598 8.05402 10.4324 8.07575 10.2694C8.09748 10.1065 8.17286 9.95538 8.29 9.84001L9.29 8.84001C9.40468 8.72403 9.48357 8.57751 9.51726 8.41793C9.55095 8.25835 9.53802 8.09244 9.48 7.94001C9.19119 7.15799 8.98997 6.34637 8.88 5.52001C8.85519 5.30528 8.75133 5.10747 8.58865 4.96513C8.42597 4.82278 8.21613 4.7461 8 4.75001Z"/>
    </symbol>

    <symbol id='icon-arrow' viewBox="0 0 1024 1024" >
        <path d="M364.8 106.666667L298.666667 172.8 637.866667 512 298.666667 851.2l66.133333 66.133333L768 512z"></path>
    </symbol>

    <symbol id='icon-open' viewBox="0 0 385.201 385.201">
        <path id="Border_Arrow_Right" d="M381.658,183.472L201.878,3.691c-2.43-2.43-5.618-3.621-8.794-3.597 c-0.096,0-0.168-0.048-0.265-0.048H12.364c-6.641,0-12.03,5.39-12.03,12.03c0,0.096,0.048,0.168,0.048,0.265 c-0.012,3.176,1.179,6.364,3.597,8.794l171.384,171.384L3.618,364.263c-4.824,4.824-4.824,12.644,0,17.468 c2.863,2.863,6.749,3.814,10.466,3.284h176.978c3.717,0.529,7.603-0.421,10.466-3.284l180.118-180.118 c2.502-2.502,3.645-5.799,3.549-9.083C385.292,189.27,384.149,185.974,381.658,183.472z M187.381,360.955H41.862l159.329-159.329 c2.502-2.502,3.645-5.799,3.549-9.083c0.096-3.272-1.047-6.569-3.549-9.071L41.838,24.106h145.579l168.412,168.412L187.381,360.955 z"></path> 
    </symbol>

    <symbol id='icon-gitHub' viewBox="0 -2 24 26">
        <path  d="M12 0c-6.626 0-12 5.373-12 12 0 5.302 3.438 9.8 8.207 11.387.599.111.793-.261.793-.577v-2.234c-3.338.726-4.033-1.416-4.033-1.416-.546-1.387-1.333-1.756-1.333-1.756-1.089-.745.083-.729.083-.729 1.205.084 1.839 1.237 1.839 1.237 1.07 1.834 2.807 1.304 3.492.997.107-.775.418-1.305.762-1.604-2.665-.305-5.467-1.334-5.467-5.931 0-1.311.469-2.381 1.236-3.221-.124-.303-.535-1.524.117-3.176 0 0 1.008-.322 3.301 1.23.957-.266 1.983-.399 3.003-.404 1.02.005 2.047.138 3.006.404 2.291-1.552 3.297-1.23 3.297-1.23.653 1.653.242 2.874.118 3.176.77.84 1.235 1.911 1.235 3.221 0 4.609-2.807 5.624-5.479 5.921.43.372.823 1.102.823 2.222v3.293c0 .319.192.694.801.576 4.765-1.589 8.199-6.086 8.199-11.386 0-6.627-5.373-12-12-12z"/>
    </symbol>

    <symbol id='icon-headHunter' viewBox="0 0 800.000000 800.000000">
        <g transform="translate(0.000000,800.000000) scale(0.100000, -0.100000)" stroke="none">
            <path d="M3695 7989 c-1381 -111 -2587 -904 -3237 -2129 -435 -820 -567 -1813 -362 -2735 293 -1314 1243 -2403 2507 -2874 748 -278 1577 -326 2357 -135 1275 312 2329 1252 2789 2486 265 712 320 1487 160 2242 -279 1322 -1238 2430 -2513 2905 -529 197 -1149 285 -1701 240z m-1435 -2729 l0 -680 76 75 c205 203 436 294 714 282 148 -6 251 -31 365 -86 228 -110 350 -277 402 -554 13 -69 16 -223 20 -999 l4 -918 -324 0 -325 0 -5 823 c-5 876 -7 925 -54 1030 -84 188 -351 253 -583 141 -132 -63 -219 -183 -262 -363 -21 -83 -22 -113 -25 -858 l-4 -773 -330 0 -329 0 0 1780 0 1780 330 0 330 0 0 -680z m2550 -2 l0 -681 73 69 c138 134 266 213 422 260 83 26 103 28 260 28 196 -1 270 -16 411 -84 235 -113 361 -302 405 -605 8 -54 13 -370 16 -972 l5 -893 -331 0 -331 0 0 795 c0 827 -5 943 -41 1042 -38 99 -142 181 -261 203 -226 43 -452 -66 -543 -262 -75 -163 -84 -290 -85 -1130 l0 -648 -325 0 -325 0 0 1780 0 1780 325 0 325 0 0 -682z"/>
        </g>
    </symbol>

    <symbol id='icon-whatsup' viewBox="0 -14 308 330">
        <path d="M227.904,176.981c-0.6-0.288-23.054-11.345-27.044-12.781c-1.629-0.585-3.374-1.156-5.23-1.156 c-3.032,0-5.579,1.511-7.563,4.479c-2.243,3.334-9.033,11.271-11.131,13.642c-0.274,0.313-0.648,0.687-0.872,0.687 c-0.201,0-3.676-1.431-4.728-1.888c-24.087-10.463-42.37-35.624-44.877-39.867c-0.358-0.61-0.373-0.887-0.376-0.887 c0.088-0.323,0.898-1.135,1.316-1.554c1.223-1.21,2.548-2.805,3.83-4.348c0.607-0.731,1.215-1.463,1.812-2.153 c1.86-2.164,2.688-3.844,3.648-5.79l0.503-1.011c2.344-4.657,0.342-8.587-0.305-9.856c-0.531-1.062-10.012-23.944-11.02-26.348 c-2.424-5.801-5.627-8.502-10.078-8.502c-0.413,0,0,0-1.732,0.073c-2.109,0.089-13.594,1.601-18.672,4.802 c-5.385,3.395-14.495,14.217-14.495,33.249c0,17.129,10.87,33.302,15.537,39.453c0.116,0.155,0.329,0.47,0.638,0.922 c17.873,26.102,40.154,45.446,62.741,54.469c21.745,8.686,32.042,9.69,37.896,9.69c0.001,0,0.001,0,0.001,0 c2.46,0,4.429-0.193,6.166-0.364l1.102-0.105c7.512-0.666,24.02-9.22,27.775-19.655c2.958-8.219,3.738-17.199,1.77-20.458 C233.168,179.508,230.845,178.393,227.904,176.981z"></path> 
        <path d="M156.734,0C73.318,0,5.454,67.354,5.454,150.143c0,26.777,7.166,52.988,20.741,75.928L0.212,302.716 c-0.484,1.429-0.124,3.009,0.933,4.085C1.908,307.58,2.943,308,4,308c0.405,0,0.813-0.061,1.211-0.188l79.92-25.396 c21.87,11.685,46.588,17.853,71.604,17.853C240.143,300.27,308,232.923,308,150.143C308,67.354,240.143,0,156.734,0z M156.734,268.994c-23.539,0-46.338-6.797-65.936-19.657c-0.659-0.433-1.424-0.655-2.194-0.655c-0.407,0-0.815,0.062-1.212,0.188 l-40.035,12.726l12.924-38.129c0.418-1.234,0.209-2.595-0.561-3.647c-14.924-20.392-22.813-44.485-22.813-69.677 c0-65.543,53.754-118.867,119.826-118.867c66.064,0,119.812,53.324,119.812,118.867 C276.546,215.678,222.799,268.994,156.734,268.994z"></path> 
    </symbol>

    <symbol id='icon-print' viewBox="0 -2 32 32">
        <g transform="translate(-100.000000, -205.000000)"> 
            <path d="M130,226 C130,227.104 129.104,228 128,228 L125.858,228 C125.413,226.278 123.862,225 122,225 L110,225 C108.138,225 106.587,226.278 106.142,228 L104,228 C102.896,228 102,227.104 102,226 L102,224 C102,222.896 102.896,222 104,222 L128,222 C129.104,222 130,222.896 130,224 L130,226 L130,226 Z M122,231 L110,231 C108.896,231 108,230.104 108,229 C108,227.896 108.896,227 110,227 L122,227 C123.104,227 124,227.896 124,229 C124,230.104 123.104,231 122,231 L122,231 Z M108,209 C108,207.896 108.896,207 110,207 L122,207 C123.104,207 124,207.896 124,209 L124,220 L108,220 L108,209 L108,209 Z M128,220 L126,220 L126,209 C126,206.791 124.209,205 122,205 L110,205 C107.791,205 106,206.791 106,209 L106,220 L104,220 C101.791,220 100,221.791 100,224 L100,226 C100,228.209 101.791,230 104,230 L106.142,230 C106.587,231.723 108.138,233 110,233 L122,233 C123.862,233 125.413,231.723 125.858,230 L128,230 C130.209,230 132,228.209 132,226 L132,224 C132,221.791 130.209,220 128,220 L128,220 Z"></path> 
        </g>
    </symbol>

</svg>

